<?xml version="1.0" encoding="utf-8"?>

<!-- Uploaded to: SVG Repo, www.svgrepo.com, Generator: SVG Repo Mixer Tools -->
<svg fill="#000000" height="800px" width="800px" version="1.1" id="Icons" xmlns="http://www.w3.org/2000/svg" xmlns:xlink="http://www.w3.org/1999/xlink" 
	 viewBox="0 0 32 32" xml:space="preserve">
<polygon points="8.3,20 10.7,20 9.5,18 "/>
<path d="M27,4H17V2c0-0.6-0.4-1-1-1s-1,0.4-1,1v2H5C3.3,4,2,5.3,2,7v18c0,1.7,1.3,3,3,3h10v2c0,0.6,0.4,1,1,1s1-0.4,1-1v-2h10
	c1.7,0,3-1.3,3-3V7C30,5.3,28.7,4,27,4z M9.1,7.6c0.1-0.1,0.1-0.2,0.2-0.3c0.1-0.1,0.2-0.2,0.3-0.2C10,6.9,10.4,7,10.7,7.3
	c0.1,0.1,0.2,0.2,0.2,0.3C11,7.7,11,7.9,11,8c0,0.3-0.1,0.5-0.3,0.7C10.5,8.9,10.3,9,10,9C9.7,9,9.5,8.9,9.3,8.7C9.1,8.5,9,8.3,9,8
	C9,7.9,9,7.7,9.1,7.6z M6.3,7.3c0,0,0.1-0.1,0.1-0.1c0.1,0,0.1-0.1,0.2-0.1C6.7,7,6.7,7,6.8,7c0.1,0,0.3,0,0.4,0
	c0.1,0,0.1,0,0.2,0.1c0.1,0,0.1,0.1,0.2,0.1c0,0,0.1,0.1,0.1,0.1c0.1,0.1,0.2,0.2,0.2,0.3C8,7.7,8,7.9,8,8c0,0.1,0,0.3-0.1,0.4
	C7.9,8.5,7.8,8.6,7.7,8.7C7.5,8.9,7.3,9,7,9S6.5,8.9,6.3,8.7C6.1,8.5,6,8.3,6,8C6,7.7,6.1,7.5,6.3,7.3z M13.5,22.9
	C13.3,23,13.2,23,13,23c-0.3,0-0.7-0.2-0.9-0.5L11.8,22H7.2l-0.3,0.5C6.6,23,6,23.1,5.5,22.9C5,22.6,4.9,22,5.1,21.5l3.5-6
	c0.4-0.6,1.4-0.6,1.7,0l3.5,6C14.1,22,14,22.6,13.5,22.9z M13.9,8.4c-0.1,0.1-0.1,0.2-0.2,0.3C13.5,8.9,13.3,9,13,9
	c-0.1,0-0.3,0-0.4-0.1c-0.1-0.1-0.2-0.1-0.3-0.2c-0.1-0.1-0.2-0.2-0.2-0.3C12,8.3,12,8.1,12,8c0-0.1,0-0.3,0.1-0.4
	c0.1-0.1,0.1-0.2,0.2-0.3c0.4-0.4,1-0.4,1.4,0c0.1,0.1,0.2,0.2,0.2,0.3C14,7.7,14,7.9,14,8C14,8.1,14,8.3,13.9,8.4z M17,26
	c0,0.6-0.4,1-1,1s-1-0.4-1-1V6c0-0.6,0.4-1,1-1s1,0.4,1,1V26z M23.5,23H20c-0.6,0-1-0.4-1-1v-3v-3c0-0.6,0.4-1,1-1h2.5
	c1.4,0,2.5,1.1,2.5,2.5c0,0.3-0.1,0.6-0.2,0.9c0.7,0.4,1.2,1.2,1.2,2.1C26,21.9,24.9,23,23.5,23z"/>
<g>
	<path d="M23.5,20h-1H21v1h2.5c0.3,0,0.5-0.2,0.5-0.5S23.8,20,23.5,20z"/>
	<path d="M23,17.5c0-0.3-0.2-0.5-0.5-0.5H21v1h1.5C22.8,18,23,17.8,23,17.5z"/>
</g>
</svg>